<svg version="1.1" id="Layer_1" xmlns="http://www.w3.org/2000/svg" xmlns:xlink="http://www.w3.org/1999/xlink" x="0px" y="0px"
	 width="100%" viewBox="0 0 200 200" enable-background="new 0 0 200 200" xml:space="preserve">
<path fill="#FFFFFE" opacity="1.000000" stroke="none" 
	d="
M141.000000,201.000000 
	C94.000000,201.000000 47.500004,201.000000 1.000006,201.000000 
	C1.000004,134.333344 1.000004,67.666679 1.000002,1.000015 
	C67.666656,1.000010 134.333313,1.000010 200.999969,1.000005 
	C200.999985,67.666649 200.999985,134.333298 201.000000,200.999969 
	C181.166672,201.000000 161.333328,201.000000 141.000000,201.000000 
M132.635590,131.836227 
	C118.015938,104.554062 103.393021,77.273643 88.781097,49.987339 
	C87.113564,46.873383 85.595482,43.505466 81.348999,43.504757 
	C77.123886,43.504047 75.568886,46.795975 73.886833,49.939560 
	C55.201893,84.859924 36.484447,119.762901 17.790127,154.678253 
	C17.118322,155.932983 16.594759,157.267075 15.799560,159.007477 
	C19.061113,159.007477 21.748974,158.714981 24.350077,159.065765 
	C30.583008,159.906357 33.984669,157.109360 36.840019,151.667770 
	C50.602478,125.439987 64.734482,99.406090 78.741829,73.306870 
	C79.509529,71.876442 80.335396,70.477234 81.334679,68.708664 
	C82.409821,70.634071 83.236580,72.064705 84.017227,73.520073 
	C98.254753,100.063156 112.411873,126.650093 126.844154,153.086823 
	C128.181381,155.536346 131.005859,158.123428 133.587692,158.725388 
	C137.637253,159.669556 142.068695,158.975922 147.098480,158.975922 
	C142.162827,149.724136 137.566452,141.108292 132.635590,131.836227 
M151.918365,127.623009 
	C156.632751,136.426620 161.193436,145.318726 166.173538,153.969376 
	C167.364426,156.037979 169.771667,158.337799 171.936874,158.716476 
	C176.200211,159.462158 180.685989,158.936111 185.987930,158.936111 
	C182.719360,152.832458 179.916397,147.594162 177.109741,142.357834 
	C160.519180,111.405113 143.979660,80.424706 127.235138,49.555489 
	C125.937447,47.163151 123.454117,44.343639 121.074463,43.841076 
	C116.710014,42.919338 112.011711,43.578407 106.872467,43.578407 
	C122.025696,71.842842 136.801361,99.403000 151.918365,127.623009 
M77.879318,147.401840 
	C81.408813,140.812500 84.992249,134.250977 88.417625,127.607941 
	C89.027527,126.425125 89.612915,124.603561 89.130775,123.590294 
	C86.836006,118.767616 84.168419,114.122337 81.266693,108.732597 
	C72.114082,125.844887 63.397240,142.142441 54.656853,158.483994 
	C65.163719,160.179428 74.187401,159.972107 77.879318,147.401840 
z"/>
<path fill="#EFAC05" opacity="1.000000" stroke="none" 
	d="
M132.802826,132.164337 
	C137.566452,141.108292 142.162827,149.724136 147.098480,158.975922 
	C142.068695,158.975922 137.637253,159.669556 133.587692,158.725388 
	C131.005859,158.123428 128.181381,155.536346 126.844154,153.086823 
	C112.411873,126.650093 98.254753,100.063156 84.017227,73.520073 
	C83.236580,72.064705 82.409821,70.634071 81.334679,68.708664 
	C80.335396,70.477234 79.509529,71.876442 78.741829,73.306870 
	C64.734482,99.406090 50.602478,125.439987 36.840019,151.667770 
	C33.984669,157.109360 30.583008,159.906357 24.350077,159.065765 
	C21.748974,158.714981 19.061113,159.007477 15.799560,159.007477 
	C16.594759,157.267075 17.118322,155.932983 17.790127,154.678253 
	C36.484447,119.762901 55.201893,84.859924 73.886833,49.939560 
	C75.568886,46.795975 77.123886,43.504047 81.348999,43.504757 
	C85.595482,43.505466 87.113564,46.873383 88.781097,49.987339 
	C103.393021,77.273643 118.015938,104.554062 132.802826,132.164337 
z"/>
<path fill="#EFAC05" opacity="1.000000" stroke="none" 
	d="
M151.747681,127.293091 
	C136.801361,99.403000 122.025696,71.842842 106.872467,43.578407 
	C112.011711,43.578407 116.710014,42.919338 121.074463,43.841076 
	C123.454117,44.343639 125.937447,47.163151 127.235138,49.555489 
	C143.979660,80.424706 160.519180,111.405113 177.109741,142.357834 
	C179.916397,147.594162 182.719360,152.832458 185.987930,158.936111 
	C180.685989,158.936111 176.200211,159.462158 171.936874,158.716476 
	C169.771667,158.337799 167.364426,156.037979 166.173538,153.969376 
	C161.193436,145.318726 156.632751,136.426620 151.747681,127.293091 
z"/>
<path fill="#EFAD06" opacity="1.000000" stroke="none" 
	d="
M77.698395,147.723236 
	C74.187401,159.972107 65.163719,160.179428 54.656853,158.483994 
	C63.397240,142.142441 72.114082,125.844887 81.266693,108.732597 
	C84.168419,114.122337 86.836006,118.767616 89.130775,123.590294 
	C89.612915,124.603561 89.027527,126.425125 88.417625,127.607941 
	C84.992249,134.250977 81.408813,140.812500 77.698395,147.723236 
z"/>
</svg>